<svg width="120" height="120" viewBox="0 0 120 120" fill="none" xmlns="http://www.w3.org/2000/svg">
<path d="M59.8669 87.8003C75.2941 87.8003 87.8003 75.2941 87.8003 59.8669C87.8003 44.4398 75.2941 31.9336 59.8669 31.9336C44.4398 31.9336 31.9336 44.4398 31.9336 59.8669C31.9336 75.2941 44.4398 87.8003 59.8669 87.8003Z" fill="black" fill-opacity="0.4"/>
<path d="M59.8667 88.7333C43.9667 88.7333 31 75.8 31 59.8667C31 43.9333 43.9667 31 59.8667 31C75.7667 31 88.7333 43.9333 88.7333 59.8667C88.7333 75.8 75.8 88.7333 59.8667 88.7333ZM59.8667 32.8333C44.9667 32.8333 32.8333 44.9667 32.8333 59.8667C32.8333 74.7667 44.9667 86.9 59.8667 86.9C74.7667 86.9 86.9 74.7667 86.9 59.8667C86.9 44.9667 74.7667 32.8333 59.8667 32.8333Z" fill="white" fill-opacity="0.8"/>
<path d="M73.8333 59.8663L52.6333 47.333V72.3997L73.8333 59.8663Z" fill="white"/>
</svg>
